<mxfile host="app.diagrams.net" modified="2023-08-21T02:56:34.790Z" agent="Mozilla/5.0 (Windows NT 10.0; Win64; x64) AppleWebKit/537.36 (KHTML, like Gecko) Chrome/116.0.0.0 Safari/537.36" etag="oMmQUbGXwafNhbgV1FIO" version="21.6.8" type="github">
  <diagram name="第 1 页" id="YAT-jl0Xb32g90HKZpKq">
    <mxGraphModel dx="1434" dy="782" grid="1" gridSize="10" guides="1" tooltips="1" connect="1" arrows="1" fold="1" page="1" pageScale="1" pageWidth="1200" pageHeight="1920" math="0" shadow="0">
      <root>
        <mxCell id="0" />
        <mxCell id="1" parent="0" />
        <mxCell id="BBzcVZzisX23GkQGwMCL-1" value="手动阀手动阀" style="image;aspect=fixed;perimeter=ellipsePerimeter;html=1;align=center;shadow=0;dashed=0;fontColor=#4277BB;labelBackgroundColor=default;fontSize=12;spacingTop=3;image=img/lib/ibm/analytics/data_integration.svg;" vertex="1" parent="1">
          <mxGeometry x="390" y="460" width="60" height="60" as="geometry" />
        </mxCell>
        <mxCell id="BBzcVZzisX23GkQGwMCL-2" value="aaa杀死" style="image;aspect=fixed;perimeter=ellipsePerimeter;html=1;align=center;shadow=0;dashed=0;fontColor=#4277BB;labelBackgroundColor=default;fontSize=12;spacingTop=3;image=img/lib/ibm/applications/api_developer_portal.svg;" vertex="1" parent="1">
          <mxGeometry x="1010" y="210" width="60" height="60" as="geometry" />
        </mxCell>
        <mxCell id="BBzcVZzisX23GkQGwMCL-3" value="" style="edgeStyle=elbowEdgeStyle;elbow=horizontal;endArrow=classic;html=1;curved=0;rounded=0;endSize=8;startSize=8;entryX=0;entryY=0.5;entryDx=0;entryDy=0;exitX=1;exitY=0.5;exitDx=0;exitDy=0;" edge="1" parent="1" source="BBzcVZzisX23GkQGwMCL-1" target="BBzcVZzisX23GkQGwMCL-2">
          <mxGeometry width="50" height="50" relative="1" as="geometry">
            <mxPoint x="430" y="260" as="sourcePoint" />
            <mxPoint x="440" y="180" as="targetPoint" />
            <Array as="points">
              <mxPoint x="870" y="300" />
              <mxPoint x="500" y="190" />
            </Array>
          </mxGeometry>
        </mxCell>
        <mxCell id="BBzcVZzisX23GkQGwMCL-4" value="" style="curved=1;endArrow=classic;html=1;rounded=0;exitX=0.5;exitY=0;exitDx=0;exitDy=0;entryX=0.5;entryY=0;entryDx=0;entryDy=0;" edge="1" parent="1" source="BBzcVZzisX23GkQGwMCL-1" target="BBzcVZzisX23GkQGwMCL-2">
          <mxGeometry width="50" height="50" relative="1" as="geometry">
            <mxPoint x="390" y="230" as="sourcePoint" />
            <mxPoint x="440" y="180" as="targetPoint" />
            <Array as="points">
              <mxPoint x="620" y="290" />
              <mxPoint x="740" y="190" />
              <mxPoint x="900" y="180" />
            </Array>
          </mxGeometry>
        </mxCell>
      </root>
    </mxGraphModel>
  </diagram>
</mxfile>
